<svg width="120" height="128" viewBox="0 0 120 128" fill="none" xmlns="http://www.w3.org/2000/svg">
<style>
  path { fill: #1a1714; }
  @media (prefers-color-scheme: dark) {
    path { fill: #fffcf7; }
  }
</style>
<path d="M55.192 13.4H73.24C77.08 13.4 80.536 13.9547 83.608 15.064C86.7653 16.1733 89.4107 17.7947 91.544 19.928C93.6773 21.976 95.2987 24.4933 96.408 27.48C97.6027 30.3813 98.2 33.7093 98.2 37.464C98.2 41.56 97.2187 45.4853 95.256 49.24C93.3787 52.9947 90.776 56.0667 87.448 58.456C84.2053 60.76 80.536 61.912 76.44 61.912C77.8907 62.5093 79.4693 63.7467 81.176 65.624C82.8827 67.416 84.376 69.1653 85.656 70.872C85.656 70.872 86.2107 71.7253 87.32 73.432C88.5147 75.0533 89.9653 77.0587 91.672 79.448C93.464 81.8373 95.256 84.184 97.048 86.488C98.84 88.792 100.376 90.6267 101.656 91.992C103.363 93.8693 105.069 95.5333 106.776 96.984C108.483 98.4347 110.317 99.5867 112.28 100.44C114.328 101.293 116.589 101.72 119.064 101.72V103H112.024C108.099 103 104.685 102.403 101.784 101.208C98.968 100.013 96.5787 98.5627 94.616 96.856C92.6533 95.064 90.9893 93.3573 89.624 91.736C89.368 91.3947 88.6427 90.4133 87.448 88.792C86.3387 87.1707 84.9733 85.2507 83.352 83.032C81.816 80.728 80.28 78.4667 78.744 76.248C77.208 74.0293 75.8853 72.152 74.776 70.616C73.6667 68.9947 73.0267 68.056 72.856 67.8C71.2347 65.6667 69.4427 63.704 67.48 61.912C65.5173 60.12 63.384 59.224 61.08 59.224V57.944C61.08 57.944 61.72 57.9867 63 58.072C64.3653 58.072 65.9867 58.0293 67.864 57.944C70.0827 57.8587 72.5147 57.5173 75.16 56.92C77.8053 56.3227 80.28 55.0853 82.584 53.208C84.888 51.3307 86.6373 48.472 87.832 44.632C88.088 43.6933 88.3013 42.5413 88.472 41.176C88.6427 39.7253 88.6853 38.3173 88.6 36.952C88.5147 31.1493 87.0213 26.5413 84.12 23.128C81.304 19.6293 77.5067 17.752 72.728 17.496C70.3387 17.3253 67.864 17.2827 65.304 17.368C62.8293 17.368 60.7387 17.368 59.032 17.368C57.3253 17.368 56.472 17.368 56.472 17.368C56.472 17.2827 56.344 16.9413 56.088 16.344C55.9173 15.6613 55.704 15.0213 55.448 14.424C55.2773 13.7413 55.192 13.4 55.192 13.4ZM56.856 13.4V103H48.536V13.4H56.856ZM48.92 93.656V103H38.68V101.72C38.68 101.72 38.936 101.72 39.448 101.72C40.0453 101.72 40.344 101.72 40.344 101.72C42.5627 101.72 44.44 100.952 45.976 99.416C47.5973 97.7947 48.4507 95.8747 48.536 93.656H48.92ZM48.92 22.744H48.536C48.4507 20.5253 47.5973 18.648 45.976 17.112C44.44 15.4907 42.5627 14.68 40.344 14.68C40.344 14.68 40.0453 14.68 39.448 14.68C38.936 14.68 38.68 14.68 38.68 14.68V13.4H48.92V22.744ZM56.472 93.656H56.856C56.856 95.8747 57.6667 97.7947 59.288 99.416C60.9093 100.952 62.8293 101.72 65.048 101.72C65.048 101.72 65.304 101.72 65.816 101.72C66.328 101.72 66.584 101.72 66.584 101.72V103H56.472V93.656Z"/>
<path d="M49.808 13.4H32.912C27.4507 13.4 22.7573 14.3813 18.832 16.344C14.9067 18.3067 11.8773 21.1653 9.744 24.92C7.61066 28.5893 6.544 32.984 6.544 38.104C6.544 42.0293 7.312 45.5707 8.848 48.728C10.384 51.8 12.432 54.4027 14.992 56.536C17.552 58.6693 20.4533 60.2907 23.696 61.4C26.9387 62.424 30.3093 62.808 33.808 62.552C37.2213 62.296 40.5493 61.3147 43.792 59.608V58.328C43.792 58.328 43.0667 58.456 41.616 58.712C40.1653 58.8827 38.3307 58.9253 36.112 58.84C33.808 58.6693 31.4187 58.2 28.944 57.432C26.384 56.5787 24.0373 55.128 21.904 53.08C19.6853 51.032 18.0213 48.1733 16.912 44.504C16.656 43.5653 16.4427 42.4133 16.272 41.048C16.1013 39.5973 16.0587 38.1893 16.144 36.824C16.2293 30.936 17.7653 26.2 20.752 22.616C23.7387 19.032 27.9627 17.24 33.424 17.24H48.528C48.528 17.24 48.656 16.9413 48.912 16.344C49.0827 15.6613 49.296 15.0213 49.552 14.424C49.7227 13.7413 49.808 13.4 49.808 13.4ZM48.144 13.4V103H56.464V13.4H48.144ZM56.08 93.656V103H66.32V101.72C66.32 101.72 66.064 101.72 65.552 101.72C64.9547 101.72 64.656 101.72 64.656 101.72C62.4373 101.72 60.56 100.952 59.024 99.416C57.4027 97.7947 56.5493 95.8747 56.464 93.656H56.08ZM56.08 22.744H56.464C56.464 20.5253 57.2747 18.648 58.896 17.112C60.5173 15.4907 62.4373 14.68 64.656 14.68C64.656 14.68 64.912 14.68 65.424 14.68C65.936 14.68 66.192 14.68 66.192 14.68L66.32 13.4H56.08V22.744ZM48.528 93.656H48.144C48.0587 95.8747 47.248 97.7947 45.712 99.416C44.0907 100.952 42.1707 101.72 39.952 101.72C39.952 101.72 39.696 101.72 39.184 101.72C38.5867 101.72 38.288 101.72 38.288 101.72V103H48.528V93.656Z"/>
</svg>
